<mxfile host="app.diagrams.net" agent="Mozilla/5.0 (Windows NT 10.0; Win64; x64) AppleWebKit/537.36 (KHTML, like Gecko) Chrome/135.0.0.0 Safari/537.36" version="26.2.5">
  <diagram name="Page-1" id="U95p6Cpx4X8_NTuBjeX-">
    <mxGraphModel dx="2681" dy="906" grid="1" gridSize="10" guides="1" tooltips="1" connect="1" arrows="1" fold="1" page="1" pageScale="1" pageWidth="850" pageHeight="1100" math="0" shadow="0">
      <root>
        <mxCell id="0" />
        <mxCell id="1" parent="0" />
        <mxCell id="5zMJlGilUF_v-8dUURK4-250" value="" style="rounded=0;whiteSpace=wrap;html=1;dashed=1;" vertex="1" parent="1">
          <mxGeometry x="270" y="345" width="960" height="675" as="geometry" />
        </mxCell>
        <mxCell id="hZhW2IzUP-VDz9tQ_r6S-1" value="mem" style="rounded=0;whiteSpace=wrap;html=1;" parent="1" vertex="1">
          <mxGeometry x="830" y="425" width="160" height="120" as="geometry" />
        </mxCell>
        <mxCell id="hZhW2IzUP-VDz9tQ_r6S-6" value="" style="endArrow=classic;html=1;rounded=0;entryX=0;entryY=0.375;entryDx=0;entryDy=0;entryPerimeter=0;" parent="1" target="hZhW2IzUP-VDz9tQ_r6S-8" edge="1">
          <mxGeometry width="50" height="50" relative="1" as="geometry">
            <mxPoint x="367.5" y="470" as="sourcePoint" />
            <mxPoint x="407.5" y="470" as="targetPoint" />
          </mxGeometry>
        </mxCell>
        <mxCell id="hZhW2IzUP-VDz9tQ_r6S-8" value="Controller" style="rounded=0;whiteSpace=wrap;html=1;" parent="1" vertex="1">
          <mxGeometry x="407.5" y="440" width="160" height="80" as="geometry" />
        </mxCell>
        <mxCell id="hZhW2IzUP-VDz9tQ_r6S-9" value="" style="endArrow=classic;html=1;rounded=0;entryX=-0.003;entryY=0.623;entryDx=0;entryDy=0;entryPerimeter=0;" parent="1" target="hZhW2IzUP-VDz9tQ_r6S-8" edge="1">
          <mxGeometry width="50" height="50" relative="1" as="geometry">
            <mxPoint x="367.5" y="490" as="sourcePoint" />
            <mxPoint x="317.5" y="500" as="targetPoint" />
          </mxGeometry>
        </mxCell>
        <mxCell id="hZhW2IzUP-VDz9tQ_r6S-10" value="" style="endArrow=classic;html=1;rounded=0;entryX=-0.003;entryY=0.623;entryDx=0;entryDy=0;entryPerimeter=0;" parent="1" edge="1">
          <mxGeometry width="50" height="50" relative="1" as="geometry">
            <mxPoint x="367.5" y="510" as="sourcePoint" />
            <mxPoint x="407.5" y="509.89" as="targetPoint" />
          </mxGeometry>
        </mxCell>
        <mxCell id="hZhW2IzUP-VDz9tQ_r6S-12" value="rst_n" style="text;html=1;align=center;verticalAlign=middle;whiteSpace=wrap;rounded=0;" parent="1" vertex="1">
          <mxGeometry x="307.5" y="470" width="60" height="30" as="geometry" />
        </mxCell>
        <mxCell id="hZhW2IzUP-VDz9tQ_r6S-13" value="i_valid" style="text;html=1;align=center;verticalAlign=middle;whiteSpace=wrap;rounded=0;" parent="1" vertex="1">
          <mxGeometry x="307.5" y="500" width="60" height="30" as="geometry" />
        </mxCell>
        <mxCell id="hZhW2IzUP-VDz9tQ_r6S-16" value="" style="endArrow=classic;html=1;rounded=0;exitX=0.877;exitY=-0.024;exitDx=0;exitDy=0;exitPerimeter=0;" parent="1" edge="1">
          <mxGeometry width="50" height="50" relative="1" as="geometry">
            <mxPoint x="457.36" y="440" as="sourcePoint" />
            <mxPoint x="457.5" y="390" as="targetPoint" />
          </mxGeometry>
        </mxCell>
        <mxCell id="hZhW2IzUP-VDz9tQ_r6S-17" value="" style="endArrow=classic;html=1;rounded=0;exitX=0.877;exitY=-0.024;exitDx=0;exitDy=0;exitPerimeter=0;" parent="1" edge="1">
          <mxGeometry width="50" height="50" relative="1" as="geometry">
            <mxPoint x="417.5" y="440" as="sourcePoint" />
            <mxPoint x="417.5" y="390" as="targetPoint" />
          </mxGeometry>
        </mxCell>
        <mxCell id="hZhW2IzUP-VDz9tQ_r6S-18" value="wr_en" style="text;html=1;align=center;verticalAlign=middle;whiteSpace=wrap;rounded=0;" parent="1" vertex="1">
          <mxGeometry x="387.5" y="355" width="60" height="30" as="geometry" />
        </mxCell>
        <mxCell id="hZhW2IzUP-VDz9tQ_r6S-19" value="rd_en" style="text;html=1;align=center;verticalAlign=middle;whiteSpace=wrap;rounded=0;" parent="1" vertex="1">
          <mxGeometry x="427.5" y="360" width="60" height="20" as="geometry" />
        </mxCell>
        <mxCell id="hZhW2IzUP-VDz9tQ_r6S-20" value="reset_en" style="text;html=1;align=center;verticalAlign=middle;whiteSpace=wrap;rounded=0;" parent="1" vertex="1">
          <mxGeometry x="477.5" y="360" width="60" height="20" as="geometry" />
        </mxCell>
        <mxCell id="hZhW2IzUP-VDz9tQ_r6S-21" value="" style="endArrow=classic;html=1;rounded=0;entryX=0.75;entryY=0;entryDx=0;entryDy=0;" parent="1" target="hZhW2IzUP-VDz9tQ_r6S-1" edge="1">
          <mxGeometry width="50" height="50" relative="1" as="geometry">
            <mxPoint x="950" y="385" as="sourcePoint" />
            <mxPoint x="922.3809523809523" y="225.00285714285712" as="targetPoint" />
          </mxGeometry>
        </mxCell>
        <mxCell id="hZhW2IzUP-VDz9tQ_r6S-22" value="data_i [7:0]" style="text;html=1;align=center;verticalAlign=middle;whiteSpace=wrap;rounded=0;" parent="1" vertex="1">
          <mxGeometry x="920" y="355" width="60" height="30" as="geometry" />
        </mxCell>
        <mxCell id="hZhW2IzUP-VDz9tQ_r6S-24" value="" style="endArrow=classic;html=1;rounded=0;entryX=-0.007;entryY=0.331;entryDx=0;entryDy=0;entryPerimeter=0;" parent="1" target="hZhW2IzUP-VDz9tQ_r6S-1" edge="1">
          <mxGeometry width="50" height="50" relative="1" as="geometry">
            <mxPoint x="790" y="465" as="sourcePoint" />
            <mxPoint x="820" y="410" as="targetPoint" />
          </mxGeometry>
        </mxCell>
        <mxCell id="hZhW2IzUP-VDz9tQ_r6S-25" value="wr_en" style="text;html=1;align=center;verticalAlign=middle;whiteSpace=wrap;rounded=0;" parent="1" vertex="1">
          <mxGeometry x="735" y="435" width="60" height="30" as="geometry" />
        </mxCell>
        <mxCell id="hZhW2IzUP-VDz9tQ_r6S-26" value="" style="endArrow=classic;html=1;rounded=0;" parent="1" edge="1">
          <mxGeometry width="50" height="50" relative="1" as="geometry">
            <mxPoint x="790" y="505" as="sourcePoint" />
            <mxPoint x="830" y="505" as="targetPoint" />
          </mxGeometry>
        </mxCell>
        <mxCell id="hZhW2IzUP-VDz9tQ_r6S-27" value="rd_en" style="text;html=1;align=center;verticalAlign=middle;whiteSpace=wrap;rounded=0;" parent="1" vertex="1">
          <mxGeometry x="735" y="485" width="60" height="30" as="geometry" />
        </mxCell>
        <mxCell id="hZhW2IzUP-VDz9tQ_r6S-30" value="" style="endArrow=classic;html=1;rounded=0;entryX=0.999;entryY=0.331;entryDx=0;entryDy=0;entryPerimeter=0;" parent="1" target="hZhW2IzUP-VDz9tQ_r6S-1" edge="1">
          <mxGeometry width="50" height="50" relative="1" as="geometry">
            <mxPoint x="1070" y="465" as="sourcePoint" />
            <mxPoint x="990" y="467" as="targetPoint" />
          </mxGeometry>
        </mxCell>
        <mxCell id="hZhW2IzUP-VDz9tQ_r6S-31" value="rd_pointer [9:0]" style="text;html=1;align=center;verticalAlign=middle;whiteSpace=wrap;rounded=0;" parent="1" vertex="1">
          <mxGeometry x="1010" y="435" width="60" height="30" as="geometry" />
        </mxCell>
        <mxCell id="hZhW2IzUP-VDz9tQ_r6S-32" value="" style="endArrow=classic;html=1;rounded=0;entryX=0.999;entryY=0.669;entryDx=0;entryDy=0;entryPerimeter=0;" parent="1" target="hZhW2IzUP-VDz9tQ_r6S-1" edge="1">
          <mxGeometry width="50" height="50" relative="1" as="geometry">
            <mxPoint x="1070" y="505" as="sourcePoint" />
            <mxPoint x="1100" y="525" as="targetPoint" />
          </mxGeometry>
        </mxCell>
        <mxCell id="hZhW2IzUP-VDz9tQ_r6S-33" value="wr_pointer [9:0]" style="text;html=1;align=center;verticalAlign=middle;whiteSpace=wrap;rounded=0;" parent="1" vertex="1">
          <mxGeometry x="1010" y="475" width="60" height="30" as="geometry" />
        </mxCell>
        <mxCell id="hZhW2IzUP-VDz9tQ_r6S-44" value="" style="triangle;whiteSpace=wrap;html=1;direction=north;" parent="1" vertex="1">
          <mxGeometry x="900" y="525" width="20" height="20" as="geometry" />
        </mxCell>
        <mxCell id="hZhW2IzUP-VDz9tQ_r6S-86" value="" style="endArrow=classic;html=1;rounded=0;exitX=0.25;exitY=0;exitDx=0;exitDy=0;" parent="1" source="hZhW2IzUP-VDz9tQ_r6S-1" edge="1">
          <mxGeometry width="50" height="50" relative="1" as="geometry">
            <mxPoint x="886" y="424.99999999999994" as="sourcePoint" />
            <mxPoint x="870" y="385" as="targetPoint" />
          </mxGeometry>
        </mxCell>
        <mxCell id="hZhW2IzUP-VDz9tQ_r6S-87" value="data_o [7:0]" style="text;html=1;align=center;verticalAlign=middle;whiteSpace=wrap;rounded=0;" parent="1" vertex="1">
          <mxGeometry x="840" y="355" width="60" height="30" as="geometry" />
        </mxCell>
        <mxCell id="hZhW2IzUP-VDz9tQ_r6S-90" value="" style="endArrow=classic;html=1;rounded=0;" parent="1" edge="1">
          <mxGeometry width="50" height="50" relative="1" as="geometry">
            <mxPoint x="427.5" y="560" as="sourcePoint" />
            <mxPoint x="427.5" y="520" as="targetPoint" />
          </mxGeometry>
        </mxCell>
        <mxCell id="5zMJlGilUF_v-8dUURK4-17" value="" style="group" vertex="1" connectable="0" parent="1">
          <mxGeometry x="-690" y="50" width="380" height="280" as="geometry" />
        </mxCell>
        <mxCell id="5zMJlGilUF_v-8dUURK4-1" value="IDLE" style="ellipse;whiteSpace=wrap;html=1;" vertex="1" parent="5zMJlGilUF_v-8dUURK4-17">
          <mxGeometry x="110" y="90" width="100" height="90" as="geometry" />
        </mxCell>
        <mxCell id="5zMJlGilUF_v-8dUURK4-2" value="" style="endArrow=classic;html=1;rounded=0;entryX=0.5;entryY=0;entryDx=0;entryDy=0;" edge="1" parent="5zMJlGilUF_v-8dUURK4-17" target="5zMJlGilUF_v-8dUURK4-1">
          <mxGeometry width="50" height="50" relative="1" as="geometry">
            <mxPoint x="160" y="70" as="sourcePoint" />
            <mxPoint x="150" y="50" as="targetPoint" />
          </mxGeometry>
        </mxCell>
        <mxCell id="5zMJlGilUF_v-8dUURK4-3" value="" style="endArrow=classic;html=1;rounded=0;exitX=0.198;exitY=0.915;exitDx=0;exitDy=0;exitPerimeter=0;" edge="1" parent="5zMJlGilUF_v-8dUURK4-17" source="5zMJlGilUF_v-8dUURK4-1">
          <mxGeometry width="50" height="50" relative="1" as="geometry">
            <mxPoint x="200" y="210" as="sourcePoint" />
            <mxPoint x="90" y="200" as="targetPoint" />
          </mxGeometry>
        </mxCell>
        <mxCell id="5zMJlGilUF_v-8dUURK4-4" value="START" style="ellipse;whiteSpace=wrap;html=1;" vertex="1" parent="5zMJlGilUF_v-8dUURK4-17">
          <mxGeometry y="180" width="100" height="90" as="geometry" />
        </mxCell>
        <mxCell id="5zMJlGilUF_v-8dUURK4-5" value="done_i" style="text;html=1;align=center;verticalAlign=middle;whiteSpace=wrap;rounded=0;" vertex="1" parent="5zMJlGilUF_v-8dUURK4-17">
          <mxGeometry x="70" y="160" width="60" height="30" as="geometry" />
        </mxCell>
        <mxCell id="5zMJlGilUF_v-8dUURK4-6" value="FIRST_READ&lt;span style=&quot;white-space: pre;&quot;&gt;&#x9;&lt;/span&gt;" style="ellipse;whiteSpace=wrap;html=1;" vertex="1" parent="5zMJlGilUF_v-8dUURK4-17">
          <mxGeometry x="150" y="190" width="100" height="90" as="geometry" />
        </mxCell>
        <mxCell id="5zMJlGilUF_v-8dUURK4-7" value="" style="endArrow=classic;html=1;rounded=0;exitX=1.002;exitY=0.551;exitDx=0;exitDy=0;exitPerimeter=0;entryX=0.003;entryY=0.452;entryDx=0;entryDy=0;entryPerimeter=0;" edge="1" parent="5zMJlGilUF_v-8dUURK4-17" source="5zMJlGilUF_v-8dUURK4-4" target="5zMJlGilUF_v-8dUURK4-6">
          <mxGeometry width="50" height="50" relative="1" as="geometry">
            <mxPoint x="200" y="210" as="sourcePoint" />
            <mxPoint x="250" y="160" as="targetPoint" />
          </mxGeometry>
        </mxCell>
        <mxCell id="5zMJlGilUF_v-8dUURK4-8" value="first_done" style="text;html=1;align=center;verticalAlign=middle;whiteSpace=wrap;rounded=0;" vertex="1" parent="5zMJlGilUF_v-8dUURK4-17">
          <mxGeometry x="90" y="240" width="60" height="30" as="geometry" />
        </mxCell>
        <mxCell id="5zMJlGilUF_v-8dUURK4-9" value="READ1" style="ellipse;whiteSpace=wrap;html=1;" vertex="1" parent="5zMJlGilUF_v-8dUURK4-17">
          <mxGeometry x="280" y="190" width="100" height="90" as="geometry" />
        </mxCell>
        <mxCell id="5zMJlGilUF_v-8dUURK4-10" value="READ2" style="ellipse;whiteSpace=wrap;html=1;" vertex="1" parent="5zMJlGilUF_v-8dUURK4-17">
          <mxGeometry x="280" y="90" width="100" height="90" as="geometry" />
        </mxCell>
        <mxCell id="5zMJlGilUF_v-8dUURK4-11" value="DONE" style="ellipse;whiteSpace=wrap;html=1;" vertex="1" parent="5zMJlGilUF_v-8dUURK4-17">
          <mxGeometry x="200" width="100" height="90" as="geometry" />
        </mxCell>
        <mxCell id="5zMJlGilUF_v-8dUURK4-12" value="" style="endArrow=classic;html=1;rounded=0;exitX=0.999;exitY=0.44;exitDx=0;exitDy=0;exitPerimeter=0;entryX=-0.013;entryY=0.44;entryDx=0;entryDy=0;entryPerimeter=0;" edge="1" parent="5zMJlGilUF_v-8dUURK4-17" source="5zMJlGilUF_v-8dUURK4-6" target="5zMJlGilUF_v-8dUURK4-9">
          <mxGeometry width="50" height="50" relative="1" as="geometry">
            <mxPoint x="200" y="210" as="sourcePoint" />
            <mxPoint x="250" y="160" as="targetPoint" />
          </mxGeometry>
        </mxCell>
        <mxCell id="5zMJlGilUF_v-8dUURK4-13" value="" style="endArrow=classic;html=1;rounded=0;exitX=0.5;exitY=0;exitDx=0;exitDy=0;entryX=0.5;entryY=1;entryDx=0;entryDy=0;" edge="1" parent="5zMJlGilUF_v-8dUURK4-17" source="5zMJlGilUF_v-8dUURK4-9" target="5zMJlGilUF_v-8dUURK4-10">
          <mxGeometry width="50" height="50" relative="1" as="geometry">
            <mxPoint x="230" y="180" as="sourcePoint" />
            <mxPoint x="280" y="130" as="targetPoint" />
          </mxGeometry>
        </mxCell>
        <mxCell id="5zMJlGilUF_v-8dUURK4-14" value="" style="endArrow=classic;html=1;rounded=0;exitX=0.5;exitY=0;exitDx=0;exitDy=0;entryX=0.912;entryY=0.789;entryDx=0;entryDy=0;entryPerimeter=0;" edge="1" parent="5zMJlGilUF_v-8dUURK4-17" source="5zMJlGilUF_v-8dUURK4-10" target="5zMJlGilUF_v-8dUURK4-11">
          <mxGeometry width="50" height="50" relative="1" as="geometry">
            <mxPoint x="200" y="160" as="sourcePoint" />
            <mxPoint x="250" y="110" as="targetPoint" />
          </mxGeometry>
        </mxCell>
        <mxCell id="5zMJlGilUF_v-8dUURK4-15" value="last_done" style="text;html=1;align=center;verticalAlign=middle;whiteSpace=wrap;rounded=0;" vertex="1" parent="5zMJlGilUF_v-8dUURK4-17">
          <mxGeometry x="310" y="50" width="60" height="30" as="geometry" />
        </mxCell>
        <mxCell id="5zMJlGilUF_v-8dUURK4-16" value="" style="endArrow=classic;html=1;rounded=0;exitX=0;exitY=1;exitDx=0;exitDy=0;entryX=0.757;entryY=0.058;entryDx=0;entryDy=0;entryPerimeter=0;" edge="1" parent="5zMJlGilUF_v-8dUURK4-17" source="5zMJlGilUF_v-8dUURK4-11" target="5zMJlGilUF_v-8dUURK4-1">
          <mxGeometry width="50" height="50" relative="1" as="geometry">
            <mxPoint x="210" y="150" as="sourcePoint" />
            <mxPoint x="260" y="100" as="targetPoint" />
          </mxGeometry>
        </mxCell>
        <mxCell id="5zMJlGilUF_v-8dUURK4-18" value="first_done" style="text;html=1;align=center;verticalAlign=middle;whiteSpace=wrap;rounded=0;" vertex="1" parent="1">
          <mxGeometry x="387.5" y="560" width="60" height="30" as="geometry" />
        </mxCell>
        <mxCell id="5zMJlGilUF_v-8dUURK4-19" value="" style="endArrow=classic;html=1;rounded=0;entryX=0.369;entryY=0.976;entryDx=0;entryDy=0;entryPerimeter=0;" edge="1" parent="1">
          <mxGeometry width="50" height="50" relative="1" as="geometry">
            <mxPoint x="477.5" y="560" as="sourcePoint" />
            <mxPoint x="477.5" y="520" as="targetPoint" />
          </mxGeometry>
        </mxCell>
        <mxCell id="5zMJlGilUF_v-8dUURK4-20" value="last_done" style="text;html=1;align=center;verticalAlign=middle;whiteSpace=wrap;rounded=0;" vertex="1" parent="1">
          <mxGeometry x="447.5" y="560" width="60" height="30" as="geometry" />
        </mxCell>
        <mxCell id="5zMJlGilUF_v-8dUURK4-21" value="" style="endArrow=classic;html=1;rounded=0;exitX=0.855;exitY=-0.001;exitDx=0;exitDy=0;exitPerimeter=0;" edge="1" parent="1" source="hZhW2IzUP-VDz9tQ_r6S-8">
          <mxGeometry width="50" height="50" relative="1" as="geometry">
            <mxPoint x="527.5" y="420" as="sourcePoint" />
            <mxPoint x="544.5" y="390" as="targetPoint" />
          </mxGeometry>
        </mxCell>
        <mxCell id="5zMJlGilUF_v-8dUURK4-22" value="o_valid" style="text;html=1;align=center;verticalAlign=middle;whiteSpace=wrap;rounded=0;" vertex="1" parent="1">
          <mxGeometry x="537.5" y="360" width="60" height="20" as="geometry" />
        </mxCell>
        <mxCell id="5zMJlGilUF_v-8dUURK4-23" value="" style="endArrow=classic;html=1;rounded=0;exitX=0.877;exitY=-0.024;exitDx=0;exitDy=0;exitPerimeter=0;" edge="1" parent="1">
          <mxGeometry width="50" height="50" relative="1" as="geometry">
            <mxPoint x="497.5" y="440" as="sourcePoint" />
            <mxPoint x="497.64" y="390" as="targetPoint" />
          </mxGeometry>
        </mxCell>
        <mxCell id="5zMJlGilUF_v-8dUURK4-24" value="" style="endArrow=classic;html=1;rounded=0;exitX=1.004;exitY=0.136;exitDx=0;exitDy=0;exitPerimeter=0;" edge="1" parent="1" source="hZhW2IzUP-VDz9tQ_r6S-8">
          <mxGeometry width="50" height="50" relative="1" as="geometry">
            <mxPoint x="617.5" y="490" as="sourcePoint" />
            <mxPoint x="607.5" y="451" as="targetPoint" />
          </mxGeometry>
        </mxCell>
        <mxCell id="5zMJlGilUF_v-8dUURK4-25" value="o_start" style="text;html=1;align=center;verticalAlign=middle;whiteSpace=wrap;rounded=0;" vertex="1" parent="1">
          <mxGeometry x="607.5" y="440" width="60" height="20" as="geometry" />
        </mxCell>
        <mxCell id="5zMJlGilUF_v-8dUURK4-26" value="" style="endArrow=classic;html=1;rounded=0;exitX=1.004;exitY=0.136;exitDx=0;exitDy=0;exitPerimeter=0;" edge="1" parent="1">
          <mxGeometry width="50" height="50" relative="1" as="geometry">
            <mxPoint x="568.5" y="480" as="sourcePoint" />
            <mxPoint x="607.5" y="480" as="targetPoint" />
          </mxGeometry>
        </mxCell>
        <mxCell id="5zMJlGilUF_v-8dUURK4-27" value="o_finish" style="text;html=1;align=center;verticalAlign=middle;whiteSpace=wrap;rounded=0;" vertex="1" parent="1">
          <mxGeometry x="612.5" y="470" width="60" height="20" as="geometry" />
        </mxCell>
        <mxCell id="5zMJlGilUF_v-8dUURK4-32" value="" style="group" vertex="1" connectable="0" parent="1">
          <mxGeometry x="535" y="695" width="60" height="90" as="geometry" />
        </mxCell>
        <mxCell id="5zMJlGilUF_v-8dUURK4-29" value="" style="rounded=0;whiteSpace=wrap;html=1;" vertex="1" parent="5zMJlGilUF_v-8dUURK4-32">
          <mxGeometry width="60" height="90" as="geometry" />
        </mxCell>
        <mxCell id="5zMJlGilUF_v-8dUURK4-30" value="" style="triangle;whiteSpace=wrap;html=1;direction=north;" vertex="1" parent="5zMJlGilUF_v-8dUURK4-32">
          <mxGeometry x="20" y="75" width="20" height="15" as="geometry" />
        </mxCell>
        <mxCell id="5zMJlGilUF_v-8dUURK4-33" value="D" style="text;html=1;align=center;verticalAlign=middle;whiteSpace=wrap;rounded=0;" vertex="1" parent="5zMJlGilUF_v-8dUURK4-32">
          <mxGeometry y="7.5" width="20" height="22.5" as="geometry" />
        </mxCell>
        <mxCell id="5zMJlGilUF_v-8dUURK4-39" value="Q" style="text;html=1;align=center;verticalAlign=middle;whiteSpace=wrap;rounded=0;" vertex="1" parent="5zMJlGilUF_v-8dUURK4-32">
          <mxGeometry x="40" y="7.5" width="20" height="22.5" as="geometry" />
        </mxCell>
        <mxCell id="5zMJlGilUF_v-8dUURK4-40" value="" style="endArrow=classic;html=1;rounded=0;" edge="1" parent="1">
          <mxGeometry width="50" height="50" relative="1" as="geometry">
            <mxPoint x="505" y="715" as="sourcePoint" />
            <mxPoint x="535" y="715" as="targetPoint" />
          </mxGeometry>
        </mxCell>
        <mxCell id="5zMJlGilUF_v-8dUURK4-41" value="" style="endArrow=classic;html=1;rounded=0;exitX=1.033;exitY=0.552;exitDx=0;exitDy=0;exitPerimeter=0;" edge="1" parent="1" source="5zMJlGilUF_v-8dUURK4-39">
          <mxGeometry width="50" height="50" relative="1" as="geometry">
            <mxPoint x="625" y="755" as="sourcePoint" />
            <mxPoint x="645" y="715" as="targetPoint" />
          </mxGeometry>
        </mxCell>
        <mxCell id="5zMJlGilUF_v-8dUURK4-45" value="" style="group" vertex="1" connectable="0" parent="1">
          <mxGeometry x="475" y="675" width="30" height="80" as="geometry" />
        </mxCell>
        <mxCell id="5zMJlGilUF_v-8dUURK4-42" value="" style="shape=trapezoid;perimeter=trapezoidPerimeter;whiteSpace=wrap;html=1;fixedSize=1;direction=south;" vertex="1" parent="5zMJlGilUF_v-8dUURK4-45">
          <mxGeometry width="30" height="80" as="geometry" />
        </mxCell>
        <mxCell id="5zMJlGilUF_v-8dUURK4-43" value="1" style="text;html=1;align=center;verticalAlign=middle;whiteSpace=wrap;rounded=0;" vertex="1" parent="5zMJlGilUF_v-8dUURK4-45">
          <mxGeometry y="20" width="20" height="10" as="geometry" />
        </mxCell>
        <mxCell id="5zMJlGilUF_v-8dUURK4-44" value="0" style="text;html=1;align=center;verticalAlign=middle;whiteSpace=wrap;rounded=0;" vertex="1" parent="5zMJlGilUF_v-8dUURK4-45">
          <mxGeometry y="50" width="20" height="10" as="geometry" />
        </mxCell>
        <mxCell id="5zMJlGilUF_v-8dUURK4-46" value="" style="endArrow=classic;html=1;rounded=0;entryX=0;entryY=0.25;entryDx=0;entryDy=0;" edge="1" parent="1" target="5zMJlGilUF_v-8dUURK4-42">
          <mxGeometry width="50" height="50" relative="1" as="geometry">
            <mxPoint x="495" y="665" as="sourcePoint" />
            <mxPoint x="555" y="655" as="targetPoint" />
          </mxGeometry>
        </mxCell>
        <mxCell id="5zMJlGilUF_v-8dUURK4-47" value="reset_en" style="text;html=1;align=center;verticalAlign=middle;whiteSpace=wrap;rounded=0;" vertex="1" parent="1">
          <mxGeometry x="465" y="645" width="60" height="30" as="geometry" />
        </mxCell>
        <mxCell id="5zMJlGilUF_v-8dUURK4-48" value="" style="endArrow=classic;html=1;rounded=0;entryX=0;entryY=0.5;entryDx=0;entryDy=0;" edge="1" parent="1" target="5zMJlGilUF_v-8dUURK4-43">
          <mxGeometry width="50" height="50" relative="1" as="geometry">
            <mxPoint x="445" y="700" as="sourcePoint" />
            <mxPoint x="480" y="665" as="targetPoint" />
          </mxGeometry>
        </mxCell>
        <mxCell id="5zMJlGilUF_v-8dUURK4-49" value="0" style="text;html=1;align=center;verticalAlign=middle;whiteSpace=wrap;rounded=0;" vertex="1" parent="1">
          <mxGeometry x="405" y="675" width="60" height="30" as="geometry" />
        </mxCell>
        <mxCell id="5zMJlGilUF_v-8dUURK4-50" value="" style="endArrow=classic;html=1;rounded=0;entryX=0;entryY=0.5;entryDx=0;entryDy=0;" edge="1" parent="1" target="5zMJlGilUF_v-8dUURK4-44">
          <mxGeometry width="50" height="50" relative="1" as="geometry">
            <mxPoint x="425" y="730" as="sourcePoint" />
            <mxPoint x="460" y="690" as="targetPoint" />
          </mxGeometry>
        </mxCell>
        <mxCell id="5zMJlGilUF_v-8dUURK4-51" value="" style="group" vertex="1" connectable="0" parent="1">
          <mxGeometry x="325" y="715" width="30" height="80" as="geometry" />
        </mxCell>
        <mxCell id="5zMJlGilUF_v-8dUURK4-52" value="" style="shape=trapezoid;perimeter=trapezoidPerimeter;whiteSpace=wrap;html=1;fixedSize=1;direction=south;" vertex="1" parent="5zMJlGilUF_v-8dUURK4-51">
          <mxGeometry width="30" height="80" as="geometry" />
        </mxCell>
        <mxCell id="5zMJlGilUF_v-8dUURK4-53" value="1" style="text;html=1;align=center;verticalAlign=middle;whiteSpace=wrap;rounded=0;" vertex="1" parent="5zMJlGilUF_v-8dUURK4-51">
          <mxGeometry y="20" width="20" height="10" as="geometry" />
        </mxCell>
        <mxCell id="5zMJlGilUF_v-8dUURK4-54" value="0" style="text;html=1;align=center;verticalAlign=middle;whiteSpace=wrap;rounded=0;" vertex="1" parent="5zMJlGilUF_v-8dUURK4-51">
          <mxGeometry y="50" width="20" height="10" as="geometry" />
        </mxCell>
        <mxCell id="5zMJlGilUF_v-8dUURK4-56" value="wr_en" style="text;html=1;align=center;verticalAlign=middle;whiteSpace=wrap;rounded=0;" vertex="1" parent="1">
          <mxGeometry x="315" y="645" width="60" height="30" as="geometry" />
        </mxCell>
        <mxCell id="5zMJlGilUF_v-8dUURK4-57" value="wr_pointer" style="text;html=1;align=center;verticalAlign=middle;whiteSpace=wrap;rounded=0;" vertex="1" parent="1">
          <mxGeometry x="620" y="685" width="60" height="30" as="geometry" />
        </mxCell>
        <mxCell id="5zMJlGilUF_v-8dUURK4-59" value="" style="endArrow=classic;html=1;rounded=0;" edge="1" parent="1">
          <mxGeometry width="50" height="50" relative="1" as="geometry">
            <mxPoint x="295" y="775" as="sourcePoint" />
            <mxPoint x="305" y="735" as="targetPoint" />
            <Array as="points">
              <mxPoint x="295" y="735" />
            </Array>
          </mxGeometry>
        </mxCell>
        <mxCell id="5zMJlGilUF_v-8dUURK4-60" value="+1" style="text;html=1;align=center;verticalAlign=middle;whiteSpace=wrap;rounded=0;" vertex="1" parent="1">
          <mxGeometry x="310" y="725" width="10" height="20" as="geometry" />
        </mxCell>
        <mxCell id="5zMJlGilUF_v-8dUURK4-61" value="" style="group" vertex="1" connectable="0" parent="1">
          <mxGeometry x="395" y="695" width="30" height="80" as="geometry" />
        </mxCell>
        <mxCell id="5zMJlGilUF_v-8dUURK4-62" value="" style="shape=trapezoid;perimeter=trapezoidPerimeter;whiteSpace=wrap;html=1;fixedSize=1;direction=south;" vertex="1" parent="5zMJlGilUF_v-8dUURK4-61">
          <mxGeometry width="30" height="80" as="geometry" />
        </mxCell>
        <mxCell id="5zMJlGilUF_v-8dUURK4-63" value="1" style="text;html=1;align=center;verticalAlign=middle;whiteSpace=wrap;rounded=0;" vertex="1" parent="5zMJlGilUF_v-8dUURK4-61">
          <mxGeometry y="20" width="20" height="10" as="geometry" />
        </mxCell>
        <mxCell id="5zMJlGilUF_v-8dUURK4-64" value="0" style="text;html=1;align=center;verticalAlign=middle;whiteSpace=wrap;rounded=0;" vertex="1" parent="5zMJlGilUF_v-8dUURK4-61">
          <mxGeometry y="50" width="20" height="10" as="geometry" />
        </mxCell>
        <mxCell id="5zMJlGilUF_v-8dUURK4-65" value="" style="endArrow=classic;html=1;rounded=0;entryX=0;entryY=0.25;entryDx=0;entryDy=0;" edge="1" parent="1" target="5zMJlGilUF_v-8dUURK4-62">
          <mxGeometry width="50" height="50" relative="1" as="geometry">
            <mxPoint x="615" y="715" as="sourcePoint" />
            <mxPoint x="475" y="655" as="targetPoint" />
            <Array as="points">
              <mxPoint x="615" y="615" />
              <mxPoint x="415" y="615" />
            </Array>
          </mxGeometry>
        </mxCell>
        <mxCell id="5zMJlGilUF_v-8dUURK4-66" value="" style="endArrow=classic;html=1;rounded=0;entryX=0;entryY=0;entryDx=0;entryDy=0;" edge="1" parent="1" target="5zMJlGilUF_v-8dUURK4-63">
          <mxGeometry width="50" height="50" relative="1" as="geometry">
            <mxPoint x="365" y="715" as="sourcePoint" />
            <mxPoint x="445" y="705" as="targetPoint" />
          </mxGeometry>
        </mxCell>
        <mxCell id="5zMJlGilUF_v-8dUURK4-67" value="0" style="text;html=1;align=center;verticalAlign=middle;whiteSpace=wrap;rounded=0;" vertex="1" parent="1">
          <mxGeometry x="330" y="685" width="60" height="30" as="geometry" />
        </mxCell>
        <mxCell id="5zMJlGilUF_v-8dUURK4-68" value="== DEPTH - 1" style="ellipse;shape=cloud;whiteSpace=wrap;html=1;" vertex="1" parent="1">
          <mxGeometry x="465" y="585" width="100" height="65" as="geometry" />
        </mxCell>
        <mxCell id="5zMJlGilUF_v-8dUURK4-70" value="" style="endArrow=classic;html=1;rounded=0;entryX=-0.092;entryY=0.471;entryDx=0;entryDy=0;entryPerimeter=0;" edge="1" parent="1" target="5zMJlGilUF_v-8dUURK4-64">
          <mxGeometry width="50" height="50" relative="1" as="geometry">
            <mxPoint x="355" y="750" as="sourcePoint" />
            <mxPoint x="505" y="715" as="targetPoint" />
          </mxGeometry>
        </mxCell>
        <mxCell id="5zMJlGilUF_v-8dUURK4-71" value="" style="endArrow=classic;html=1;rounded=0;entryX=0.144;entryY=0.382;entryDx=0;entryDy=0;entryPerimeter=0;" edge="1" parent="1" target="5zMJlGilUF_v-8dUURK4-52">
          <mxGeometry width="50" height="50" relative="1" as="geometry">
            <mxPoint x="345" y="675" as="sourcePoint" />
            <mxPoint x="385" y="615" as="targetPoint" />
          </mxGeometry>
        </mxCell>
        <mxCell id="5zMJlGilUF_v-8dUURK4-73" value="" style="endArrow=classic;html=1;rounded=0;exitX=1.017;exitY=0.556;exitDx=0;exitDy=0;exitPerimeter=0;entryX=0;entryY=0.5;entryDx=0;entryDy=0;" edge="1" parent="1" source="5zMJlGilUF_v-8dUURK4-39" target="5zMJlGilUF_v-8dUURK4-54">
          <mxGeometry width="50" height="50" relative="1" as="geometry">
            <mxPoint x="630" y="805" as="sourcePoint" />
            <mxPoint x="255" y="805" as="targetPoint" />
            <Array as="points">
              <mxPoint x="615" y="715" />
              <mxPoint x="615" y="805" />
              <mxPoint x="295" y="805" />
              <mxPoint x="295" y="770" />
            </Array>
          </mxGeometry>
        </mxCell>
        <mxCell id="5zMJlGilUF_v-8dUURK4-74" value="" style="group" vertex="1" connectable="0" parent="1">
          <mxGeometry x="950" y="690" width="60" height="90" as="geometry" />
        </mxCell>
        <mxCell id="5zMJlGilUF_v-8dUURK4-75" value="" style="rounded=0;whiteSpace=wrap;html=1;" vertex="1" parent="5zMJlGilUF_v-8dUURK4-74">
          <mxGeometry width="60" height="90" as="geometry" />
        </mxCell>
        <mxCell id="5zMJlGilUF_v-8dUURK4-76" value="" style="triangle;whiteSpace=wrap;html=1;direction=north;" vertex="1" parent="5zMJlGilUF_v-8dUURK4-74">
          <mxGeometry x="20" y="75" width="20" height="15" as="geometry" />
        </mxCell>
        <mxCell id="5zMJlGilUF_v-8dUURK4-77" value="D" style="text;html=1;align=center;verticalAlign=middle;whiteSpace=wrap;rounded=0;" vertex="1" parent="5zMJlGilUF_v-8dUURK4-74">
          <mxGeometry y="7.5" width="20" height="22.5" as="geometry" />
        </mxCell>
        <mxCell id="5zMJlGilUF_v-8dUURK4-78" value="Q" style="text;html=1;align=center;verticalAlign=middle;whiteSpace=wrap;rounded=0;" vertex="1" parent="5zMJlGilUF_v-8dUURK4-74">
          <mxGeometry x="40" y="7.5" width="20" height="22.5" as="geometry" />
        </mxCell>
        <mxCell id="5zMJlGilUF_v-8dUURK4-79" value="" style="endArrow=classic;html=1;rounded=0;" edge="1" parent="1">
          <mxGeometry width="50" height="50" relative="1" as="geometry">
            <mxPoint x="920" y="710" as="sourcePoint" />
            <mxPoint x="950" y="710" as="targetPoint" />
          </mxGeometry>
        </mxCell>
        <mxCell id="5zMJlGilUF_v-8dUURK4-80" value="" style="endArrow=classic;html=1;rounded=0;exitX=1.033;exitY=0.552;exitDx=0;exitDy=0;exitPerimeter=0;" edge="1" parent="1" source="5zMJlGilUF_v-8dUURK4-78">
          <mxGeometry width="50" height="50" relative="1" as="geometry">
            <mxPoint x="1040" y="750" as="sourcePoint" />
            <mxPoint x="1060" y="710" as="targetPoint" />
          </mxGeometry>
        </mxCell>
        <mxCell id="5zMJlGilUF_v-8dUURK4-81" value="" style="group" vertex="1" connectable="0" parent="1">
          <mxGeometry x="890" y="670" width="30" height="80" as="geometry" />
        </mxCell>
        <mxCell id="5zMJlGilUF_v-8dUURK4-82" value="" style="shape=trapezoid;perimeter=trapezoidPerimeter;whiteSpace=wrap;html=1;fixedSize=1;direction=south;" vertex="1" parent="5zMJlGilUF_v-8dUURK4-81">
          <mxGeometry width="30" height="80" as="geometry" />
        </mxCell>
        <mxCell id="5zMJlGilUF_v-8dUURK4-83" value="1" style="text;html=1;align=center;verticalAlign=middle;whiteSpace=wrap;rounded=0;" vertex="1" parent="5zMJlGilUF_v-8dUURK4-81">
          <mxGeometry y="20" width="20" height="10" as="geometry" />
        </mxCell>
        <mxCell id="5zMJlGilUF_v-8dUURK4-84" value="0" style="text;html=1;align=center;verticalAlign=middle;whiteSpace=wrap;rounded=0;" vertex="1" parent="5zMJlGilUF_v-8dUURK4-81">
          <mxGeometry y="50" width="20" height="10" as="geometry" />
        </mxCell>
        <mxCell id="5zMJlGilUF_v-8dUURK4-85" value="" style="endArrow=classic;html=1;rounded=0;entryX=0;entryY=0.25;entryDx=0;entryDy=0;" edge="1" parent="1" target="5zMJlGilUF_v-8dUURK4-82">
          <mxGeometry width="50" height="50" relative="1" as="geometry">
            <mxPoint x="910" y="660" as="sourcePoint" />
            <mxPoint x="970" y="650" as="targetPoint" />
          </mxGeometry>
        </mxCell>
        <mxCell id="5zMJlGilUF_v-8dUURK4-86" value="reset_en" style="text;html=1;align=center;verticalAlign=middle;whiteSpace=wrap;rounded=0;" vertex="1" parent="1">
          <mxGeometry x="880" y="640" width="60" height="30" as="geometry" />
        </mxCell>
        <mxCell id="5zMJlGilUF_v-8dUURK4-87" value="" style="endArrow=classic;html=1;rounded=0;entryX=0;entryY=0.5;entryDx=0;entryDy=0;" edge="1" parent="1" target="5zMJlGilUF_v-8dUURK4-83">
          <mxGeometry width="50" height="50" relative="1" as="geometry">
            <mxPoint x="860" y="695" as="sourcePoint" />
            <mxPoint x="895" y="660" as="targetPoint" />
          </mxGeometry>
        </mxCell>
        <mxCell id="5zMJlGilUF_v-8dUURK4-88" value="0" style="text;html=1;align=center;verticalAlign=middle;whiteSpace=wrap;rounded=0;" vertex="1" parent="1">
          <mxGeometry x="820" y="670" width="60" height="30" as="geometry" />
        </mxCell>
        <mxCell id="5zMJlGilUF_v-8dUURK4-89" value="" style="endArrow=classic;html=1;rounded=0;entryX=0;entryY=0.5;entryDx=0;entryDy=0;" edge="1" parent="1" target="5zMJlGilUF_v-8dUURK4-84">
          <mxGeometry width="50" height="50" relative="1" as="geometry">
            <mxPoint x="840" y="725" as="sourcePoint" />
            <mxPoint x="875" y="685" as="targetPoint" />
          </mxGeometry>
        </mxCell>
        <mxCell id="5zMJlGilUF_v-8dUURK4-90" value="" style="group" vertex="1" connectable="0" parent="1">
          <mxGeometry x="740" y="710" width="30" height="80" as="geometry" />
        </mxCell>
        <mxCell id="5zMJlGilUF_v-8dUURK4-91" value="" style="shape=trapezoid;perimeter=trapezoidPerimeter;whiteSpace=wrap;html=1;fixedSize=1;direction=south;" vertex="1" parent="5zMJlGilUF_v-8dUURK4-90">
          <mxGeometry width="30" height="80" as="geometry" />
        </mxCell>
        <mxCell id="5zMJlGilUF_v-8dUURK4-92" value="1" style="text;html=1;align=center;verticalAlign=middle;whiteSpace=wrap;rounded=0;" vertex="1" parent="5zMJlGilUF_v-8dUURK4-90">
          <mxGeometry y="20" width="20" height="10" as="geometry" />
        </mxCell>
        <mxCell id="5zMJlGilUF_v-8dUURK4-93" value="0" style="text;html=1;align=center;verticalAlign=middle;whiteSpace=wrap;rounded=0;" vertex="1" parent="5zMJlGilUF_v-8dUURK4-90">
          <mxGeometry y="50" width="20" height="10" as="geometry" />
        </mxCell>
        <mxCell id="5zMJlGilUF_v-8dUURK4-94" value="rd_en" style="text;html=1;align=center;verticalAlign=middle;whiteSpace=wrap;rounded=0;" vertex="1" parent="1">
          <mxGeometry x="730" y="640" width="60" height="30" as="geometry" />
        </mxCell>
        <mxCell id="5zMJlGilUF_v-8dUURK4-95" value="rd_pointer" style="text;html=1;align=center;verticalAlign=middle;whiteSpace=wrap;rounded=0;" vertex="1" parent="1">
          <mxGeometry x="1035" y="680" width="60" height="30" as="geometry" />
        </mxCell>
        <mxCell id="5zMJlGilUF_v-8dUURK4-96" value="" style="endArrow=classic;html=1;rounded=0;" edge="1" parent="1">
          <mxGeometry width="50" height="50" relative="1" as="geometry">
            <mxPoint x="710" y="770" as="sourcePoint" />
            <mxPoint x="720" y="730" as="targetPoint" />
            <Array as="points">
              <mxPoint x="710" y="730" />
            </Array>
          </mxGeometry>
        </mxCell>
        <mxCell id="5zMJlGilUF_v-8dUURK4-97" value="+1" style="text;html=1;align=center;verticalAlign=middle;whiteSpace=wrap;rounded=0;" vertex="1" parent="1">
          <mxGeometry x="725" y="720" width="10" height="20" as="geometry" />
        </mxCell>
        <mxCell id="5zMJlGilUF_v-8dUURK4-98" value="" style="group" vertex="1" connectable="0" parent="1">
          <mxGeometry x="810" y="690" width="30" height="80" as="geometry" />
        </mxCell>
        <mxCell id="5zMJlGilUF_v-8dUURK4-99" value="" style="shape=trapezoid;perimeter=trapezoidPerimeter;whiteSpace=wrap;html=1;fixedSize=1;direction=south;" vertex="1" parent="5zMJlGilUF_v-8dUURK4-98">
          <mxGeometry width="30" height="80" as="geometry" />
        </mxCell>
        <mxCell id="5zMJlGilUF_v-8dUURK4-100" value="1" style="text;html=1;align=center;verticalAlign=middle;whiteSpace=wrap;rounded=0;" vertex="1" parent="5zMJlGilUF_v-8dUURK4-98">
          <mxGeometry y="20" width="20" height="10" as="geometry" />
        </mxCell>
        <mxCell id="5zMJlGilUF_v-8dUURK4-101" value="0" style="text;html=1;align=center;verticalAlign=middle;whiteSpace=wrap;rounded=0;" vertex="1" parent="5zMJlGilUF_v-8dUURK4-98">
          <mxGeometry y="50" width="20" height="10" as="geometry" />
        </mxCell>
        <mxCell id="5zMJlGilUF_v-8dUURK4-102" value="" style="endArrow=classic;html=1;rounded=0;entryX=0;entryY=0.25;entryDx=0;entryDy=0;" edge="1" parent="1" target="5zMJlGilUF_v-8dUURK4-99">
          <mxGeometry width="50" height="50" relative="1" as="geometry">
            <mxPoint x="1030" y="710" as="sourcePoint" />
            <mxPoint x="890" y="650" as="targetPoint" />
            <Array as="points">
              <mxPoint x="1030" y="610" />
              <mxPoint x="830" y="610" />
            </Array>
          </mxGeometry>
        </mxCell>
        <mxCell id="5zMJlGilUF_v-8dUURK4-103" value="" style="endArrow=classic;html=1;rounded=0;entryX=0;entryY=0;entryDx=0;entryDy=0;" edge="1" parent="1" target="5zMJlGilUF_v-8dUURK4-100">
          <mxGeometry width="50" height="50" relative="1" as="geometry">
            <mxPoint x="780" y="710" as="sourcePoint" />
            <mxPoint x="860" y="700" as="targetPoint" />
          </mxGeometry>
        </mxCell>
        <mxCell id="5zMJlGilUF_v-8dUURK4-104" value="0" style="text;html=1;align=center;verticalAlign=middle;whiteSpace=wrap;rounded=0;" vertex="1" parent="1">
          <mxGeometry x="745" y="680" width="60" height="30" as="geometry" />
        </mxCell>
        <mxCell id="5zMJlGilUF_v-8dUURK4-105" value="== DEPTH - 1" style="ellipse;shape=cloud;whiteSpace=wrap;html=1;" vertex="1" parent="1">
          <mxGeometry x="880" y="580" width="100" height="65" as="geometry" />
        </mxCell>
        <mxCell id="5zMJlGilUF_v-8dUURK4-106" value="" style="endArrow=classic;html=1;rounded=0;entryX=-0.092;entryY=0.471;entryDx=0;entryDy=0;entryPerimeter=0;" edge="1" parent="1" target="5zMJlGilUF_v-8dUURK4-101">
          <mxGeometry width="50" height="50" relative="1" as="geometry">
            <mxPoint x="770" y="745" as="sourcePoint" />
            <mxPoint x="920" y="710" as="targetPoint" />
          </mxGeometry>
        </mxCell>
        <mxCell id="5zMJlGilUF_v-8dUURK4-107" value="" style="endArrow=classic;html=1;rounded=0;entryX=0.149;entryY=0.312;entryDx=0;entryDy=0;entryPerimeter=0;" edge="1" parent="1" target="5zMJlGilUF_v-8dUURK4-91">
          <mxGeometry width="50" height="50" relative="1" as="geometry">
            <mxPoint x="760" y="670" as="sourcePoint" />
            <mxPoint x="800" y="610" as="targetPoint" />
          </mxGeometry>
        </mxCell>
        <mxCell id="5zMJlGilUF_v-8dUURK4-108" value="" style="endArrow=classic;html=1;rounded=0;exitX=1.017;exitY=0.556;exitDx=0;exitDy=0;exitPerimeter=0;entryX=0;entryY=0.5;entryDx=0;entryDy=0;" edge="1" parent="1" source="5zMJlGilUF_v-8dUURK4-78" target="5zMJlGilUF_v-8dUURK4-93">
          <mxGeometry width="50" height="50" relative="1" as="geometry">
            <mxPoint x="1045" y="800" as="sourcePoint" />
            <mxPoint x="670" y="800" as="targetPoint" />
            <Array as="points">
              <mxPoint x="1030" y="710" />
              <mxPoint x="1030" y="800" />
              <mxPoint x="710" y="800" />
              <mxPoint x="710" y="765" />
            </Array>
          </mxGeometry>
        </mxCell>
        <mxCell id="5zMJlGilUF_v-8dUURK4-109" value="" style="group" vertex="1" connectable="0" parent="1">
          <mxGeometry x="500" y="870" width="60" height="90" as="geometry" />
        </mxCell>
        <mxCell id="5zMJlGilUF_v-8dUURK4-110" value="" style="rounded=0;whiteSpace=wrap;html=1;" vertex="1" parent="5zMJlGilUF_v-8dUURK4-109">
          <mxGeometry width="60" height="90" as="geometry" />
        </mxCell>
        <mxCell id="5zMJlGilUF_v-8dUURK4-111" value="" style="triangle;whiteSpace=wrap;html=1;direction=north;" vertex="1" parent="5zMJlGilUF_v-8dUURK4-109">
          <mxGeometry x="20" y="75" width="20" height="15" as="geometry" />
        </mxCell>
        <mxCell id="5zMJlGilUF_v-8dUURK4-112" value="D" style="text;html=1;align=center;verticalAlign=middle;whiteSpace=wrap;rounded=0;" vertex="1" parent="5zMJlGilUF_v-8dUURK4-109">
          <mxGeometry y="7.5" width="20" height="22.5" as="geometry" />
        </mxCell>
        <mxCell id="5zMJlGilUF_v-8dUURK4-113" value="Q" style="text;html=1;align=center;verticalAlign=middle;whiteSpace=wrap;rounded=0;" vertex="1" parent="5zMJlGilUF_v-8dUURK4-109">
          <mxGeometry x="40" y="7.5" width="20" height="22.5" as="geometry" />
        </mxCell>
        <mxCell id="5zMJlGilUF_v-8dUURK4-114" value="" style="endArrow=classic;html=1;rounded=0;" edge="1" parent="1">
          <mxGeometry width="50" height="50" relative="1" as="geometry">
            <mxPoint x="470" y="890" as="sourcePoint" />
            <mxPoint x="500" y="890" as="targetPoint" />
          </mxGeometry>
        </mxCell>
        <mxCell id="5zMJlGilUF_v-8dUURK4-115" value="" style="endArrow=classic;html=1;rounded=0;exitX=1.033;exitY=0.552;exitDx=0;exitDy=0;exitPerimeter=0;" edge="1" parent="1" source="5zMJlGilUF_v-8dUURK4-113">
          <mxGeometry width="50" height="50" relative="1" as="geometry">
            <mxPoint x="590" y="930" as="sourcePoint" />
            <mxPoint x="760" y="889" as="targetPoint" />
          </mxGeometry>
        </mxCell>
        <mxCell id="5zMJlGilUF_v-8dUURK4-116" value="" style="group" vertex="1" connectable="0" parent="1">
          <mxGeometry x="440" y="850" width="30" height="80" as="geometry" />
        </mxCell>
        <mxCell id="5zMJlGilUF_v-8dUURK4-117" value="" style="shape=trapezoid;perimeter=trapezoidPerimeter;whiteSpace=wrap;html=1;fixedSize=1;direction=south;" vertex="1" parent="5zMJlGilUF_v-8dUURK4-116">
          <mxGeometry width="30" height="80" as="geometry" />
        </mxCell>
        <mxCell id="5zMJlGilUF_v-8dUURK4-118" value="1" style="text;html=1;align=center;verticalAlign=middle;whiteSpace=wrap;rounded=0;" vertex="1" parent="5zMJlGilUF_v-8dUURK4-116">
          <mxGeometry y="20" width="20" height="10" as="geometry" />
        </mxCell>
        <mxCell id="5zMJlGilUF_v-8dUURK4-119" value="0" style="text;html=1;align=center;verticalAlign=middle;whiteSpace=wrap;rounded=0;" vertex="1" parent="5zMJlGilUF_v-8dUURK4-116">
          <mxGeometry y="50" width="20" height="10" as="geometry" />
        </mxCell>
        <mxCell id="5zMJlGilUF_v-8dUURK4-120" value="" style="endArrow=classic;html=1;rounded=0;entryX=0;entryY=0.25;entryDx=0;entryDy=0;" edge="1" parent="1" target="5zMJlGilUF_v-8dUURK4-117">
          <mxGeometry width="50" height="50" relative="1" as="geometry">
            <mxPoint x="460" y="840" as="sourcePoint" />
            <mxPoint x="520" y="830" as="targetPoint" />
          </mxGeometry>
        </mxCell>
        <mxCell id="5zMJlGilUF_v-8dUURK4-121" value="reset_en" style="text;html=1;align=center;verticalAlign=middle;whiteSpace=wrap;rounded=0;" vertex="1" parent="1">
          <mxGeometry x="430" y="820" width="60" height="30" as="geometry" />
        </mxCell>
        <mxCell id="5zMJlGilUF_v-8dUURK4-122" value="" style="endArrow=classic;html=1;rounded=0;entryX=0;entryY=0.5;entryDx=0;entryDy=0;" edge="1" parent="1" target="5zMJlGilUF_v-8dUURK4-118">
          <mxGeometry width="50" height="50" relative="1" as="geometry">
            <mxPoint x="410" y="875" as="sourcePoint" />
            <mxPoint x="445" y="840" as="targetPoint" />
          </mxGeometry>
        </mxCell>
        <mxCell id="5zMJlGilUF_v-8dUURK4-124" value="" style="endArrow=classic;html=1;rounded=0;entryX=0;entryY=0.5;entryDx=0;entryDy=0;" edge="1" parent="1" target="5zMJlGilUF_v-8dUURK4-119">
          <mxGeometry width="50" height="50" relative="1" as="geometry">
            <mxPoint x="390" y="905" as="sourcePoint" />
            <mxPoint x="425" y="865" as="targetPoint" />
          </mxGeometry>
        </mxCell>
        <mxCell id="5zMJlGilUF_v-8dUURK4-125" value="" style="group" vertex="1" connectable="0" parent="1">
          <mxGeometry x="360" y="870" width="30" height="80" as="geometry" />
        </mxCell>
        <mxCell id="5zMJlGilUF_v-8dUURK4-126" value="" style="shape=trapezoid;perimeter=trapezoidPerimeter;whiteSpace=wrap;html=1;fixedSize=1;direction=south;" vertex="1" parent="5zMJlGilUF_v-8dUURK4-125">
          <mxGeometry width="30" height="80" as="geometry" />
        </mxCell>
        <mxCell id="5zMJlGilUF_v-8dUURK4-127" value="1" style="text;html=1;align=center;verticalAlign=middle;whiteSpace=wrap;rounded=0;" vertex="1" parent="5zMJlGilUF_v-8dUURK4-125">
          <mxGeometry y="20" width="20" height="10" as="geometry" />
        </mxCell>
        <mxCell id="5zMJlGilUF_v-8dUURK4-128" value="0" style="text;html=1;align=center;verticalAlign=middle;whiteSpace=wrap;rounded=0;" vertex="1" parent="5zMJlGilUF_v-8dUURK4-125">
          <mxGeometry y="50" width="20" height="10" as="geometry" />
        </mxCell>
        <mxCell id="5zMJlGilUF_v-8dUURK4-129" value="rd_en" style="text;html=1;align=center;verticalAlign=middle;whiteSpace=wrap;rounded=0;" vertex="1" parent="1">
          <mxGeometry x="355" y="820" width="60" height="30" as="geometry" />
        </mxCell>
        <mxCell id="5zMJlGilUF_v-8dUURK4-131" value="" style="endArrow=classic;html=1;rounded=0;" edge="1" parent="1">
          <mxGeometry width="50" height="50" relative="1" as="geometry">
            <mxPoint x="330" y="930" as="sourcePoint" />
            <mxPoint x="340" y="890" as="targetPoint" />
            <Array as="points">
              <mxPoint x="330" y="890" />
            </Array>
          </mxGeometry>
        </mxCell>
        <mxCell id="5zMJlGilUF_v-8dUURK4-132" value="+1" style="text;html=1;align=center;verticalAlign=middle;whiteSpace=wrap;rounded=0;" vertex="1" parent="1">
          <mxGeometry x="345" y="880" width="10" height="20" as="geometry" />
        </mxCell>
        <mxCell id="5zMJlGilUF_v-8dUURK4-142" value="" style="endArrow=classic;html=1;rounded=0;entryX=0.149;entryY=0.312;entryDx=0;entryDy=0;entryPerimeter=0;" edge="1" parent="1" target="5zMJlGilUF_v-8dUURK4-126">
          <mxGeometry width="50" height="50" relative="1" as="geometry">
            <mxPoint x="381" y="850" as="sourcePoint" />
            <mxPoint x="420" y="770" as="targetPoint" />
          </mxGeometry>
        </mxCell>
        <mxCell id="5zMJlGilUF_v-8dUURK4-143" value="" style="endArrow=classic;html=1;rounded=0;exitX=1.017;exitY=0.556;exitDx=0;exitDy=0;exitPerimeter=0;entryX=0;entryY=1;entryDx=0;entryDy=0;" edge="1" parent="1" source="5zMJlGilUF_v-8dUURK4-113" target="5zMJlGilUF_v-8dUURK4-128">
          <mxGeometry width="50" height="50" relative="1" as="geometry">
            <mxPoint x="595" y="980" as="sourcePoint" />
            <mxPoint x="220" y="980" as="targetPoint" />
            <Array as="points">
              <mxPoint x="580" y="890" />
              <mxPoint x="580" y="980" />
              <mxPoint x="330" y="980" />
              <mxPoint x="330" y="930" />
            </Array>
          </mxGeometry>
        </mxCell>
        <mxCell id="5zMJlGilUF_v-8dUURK4-169" value="" style="group" vertex="1" connectable="0" parent="1">
          <mxGeometry x="960" y="860" width="60" height="90" as="geometry" />
        </mxCell>
        <mxCell id="5zMJlGilUF_v-8dUURK4-170" value="" style="rounded=0;whiteSpace=wrap;html=1;" vertex="1" parent="5zMJlGilUF_v-8dUURK4-169">
          <mxGeometry width="60" height="90" as="geometry" />
        </mxCell>
        <mxCell id="5zMJlGilUF_v-8dUURK4-171" value="" style="triangle;whiteSpace=wrap;html=1;direction=north;" vertex="1" parent="5zMJlGilUF_v-8dUURK4-169">
          <mxGeometry x="20" y="75" width="20" height="15" as="geometry" />
        </mxCell>
        <mxCell id="5zMJlGilUF_v-8dUURK4-172" value="D" style="text;html=1;align=center;verticalAlign=middle;whiteSpace=wrap;rounded=0;" vertex="1" parent="5zMJlGilUF_v-8dUURK4-169">
          <mxGeometry y="7.5" width="20" height="22.5" as="geometry" />
        </mxCell>
        <mxCell id="5zMJlGilUF_v-8dUURK4-173" value="Q" style="text;html=1;align=center;verticalAlign=middle;whiteSpace=wrap;rounded=0;" vertex="1" parent="5zMJlGilUF_v-8dUURK4-169">
          <mxGeometry x="40" y="7.5" width="20" height="22.5" as="geometry" />
        </mxCell>
        <mxCell id="5zMJlGilUF_v-8dUURK4-174" value="" style="endArrow=classic;html=1;rounded=0;" edge="1" parent="1">
          <mxGeometry width="50" height="50" relative="1" as="geometry">
            <mxPoint x="930" y="880" as="sourcePoint" />
            <mxPoint x="960" y="880" as="targetPoint" />
          </mxGeometry>
        </mxCell>
        <mxCell id="5zMJlGilUF_v-8dUURK4-175" value="" style="endArrow=classic;html=1;rounded=0;exitX=1.033;exitY=0.552;exitDx=0;exitDy=0;exitPerimeter=0;" edge="1" parent="1" source="5zMJlGilUF_v-8dUURK4-173">
          <mxGeometry width="50" height="50" relative="1" as="geometry">
            <mxPoint x="1050" y="920" as="sourcePoint" />
            <mxPoint x="1190" y="879" as="targetPoint" />
          </mxGeometry>
        </mxCell>
        <mxCell id="5zMJlGilUF_v-8dUURK4-176" value="" style="group" vertex="1" connectable="0" parent="1">
          <mxGeometry x="900" y="840" width="30" height="80" as="geometry" />
        </mxCell>
        <mxCell id="5zMJlGilUF_v-8dUURK4-177" value="" style="shape=trapezoid;perimeter=trapezoidPerimeter;whiteSpace=wrap;html=1;fixedSize=1;direction=south;" vertex="1" parent="5zMJlGilUF_v-8dUURK4-176">
          <mxGeometry width="30" height="80" as="geometry" />
        </mxCell>
        <mxCell id="5zMJlGilUF_v-8dUURK4-178" value="1" style="text;html=1;align=center;verticalAlign=middle;whiteSpace=wrap;rounded=0;" vertex="1" parent="5zMJlGilUF_v-8dUURK4-176">
          <mxGeometry y="20" width="20" height="10" as="geometry" />
        </mxCell>
        <mxCell id="5zMJlGilUF_v-8dUURK4-179" value="0" style="text;html=1;align=center;verticalAlign=middle;whiteSpace=wrap;rounded=0;" vertex="1" parent="5zMJlGilUF_v-8dUURK4-176">
          <mxGeometry y="50" width="20" height="10" as="geometry" />
        </mxCell>
        <mxCell id="5zMJlGilUF_v-8dUURK4-180" value="" style="endArrow=classic;html=1;rounded=0;entryX=0;entryY=0.25;entryDx=0;entryDy=0;" edge="1" parent="1" target="5zMJlGilUF_v-8dUURK4-177">
          <mxGeometry width="50" height="50" relative="1" as="geometry">
            <mxPoint x="920" y="830" as="sourcePoint" />
            <mxPoint x="980" y="820" as="targetPoint" />
          </mxGeometry>
        </mxCell>
        <mxCell id="5zMJlGilUF_v-8dUURK4-182" value="" style="endArrow=classic;html=1;rounded=0;entryX=0;entryY=0.5;entryDx=0;entryDy=0;" edge="1" parent="1" target="5zMJlGilUF_v-8dUURK4-178">
          <mxGeometry width="50" height="50" relative="1" as="geometry">
            <mxPoint x="870" y="865" as="sourcePoint" />
            <mxPoint x="905" y="830" as="targetPoint" />
          </mxGeometry>
        </mxCell>
        <mxCell id="5zMJlGilUF_v-8dUURK4-183" value="" style="endArrow=classic;html=1;rounded=0;entryX=0;entryY=0.5;entryDx=0;entryDy=0;" edge="1" parent="1" target="5zMJlGilUF_v-8dUURK4-179">
          <mxGeometry width="50" height="50" relative="1" as="geometry">
            <mxPoint x="850" y="895" as="sourcePoint" />
            <mxPoint x="885" y="855" as="targetPoint" />
          </mxGeometry>
        </mxCell>
        <mxCell id="5zMJlGilUF_v-8dUURK4-184" value="" style="group" vertex="1" connectable="0" parent="1">
          <mxGeometry x="820" y="860" width="30" height="80" as="geometry" />
        </mxCell>
        <mxCell id="5zMJlGilUF_v-8dUURK4-185" value="" style="shape=trapezoid;perimeter=trapezoidPerimeter;whiteSpace=wrap;html=1;fixedSize=1;direction=south;" vertex="1" parent="5zMJlGilUF_v-8dUURK4-184">
          <mxGeometry width="30" height="80" as="geometry" />
        </mxCell>
        <mxCell id="5zMJlGilUF_v-8dUURK4-186" value="1" style="text;html=1;align=center;verticalAlign=middle;whiteSpace=wrap;rounded=0;" vertex="1" parent="5zMJlGilUF_v-8dUURK4-184">
          <mxGeometry y="20" width="20" height="10" as="geometry" />
        </mxCell>
        <mxCell id="5zMJlGilUF_v-8dUURK4-187" value="0" style="text;html=1;align=center;verticalAlign=middle;whiteSpace=wrap;rounded=0;" vertex="1" parent="5zMJlGilUF_v-8dUURK4-184">
          <mxGeometry y="50" width="20" height="10" as="geometry" />
        </mxCell>
        <mxCell id="5zMJlGilUF_v-8dUURK4-189" value="count_num_inp" style="text;html=1;align=center;verticalAlign=middle;whiteSpace=wrap;rounded=0;" vertex="1" parent="1">
          <mxGeometry x="1020" y="820" width="60" height="30" as="geometry" />
        </mxCell>
        <mxCell id="5zMJlGilUF_v-8dUURK4-190" value="" style="endArrow=classic;html=1;rounded=0;" edge="1" parent="1">
          <mxGeometry width="50" height="50" relative="1" as="geometry">
            <mxPoint x="790" y="920" as="sourcePoint" />
            <mxPoint x="800" y="880" as="targetPoint" />
            <Array as="points">
              <mxPoint x="790" y="880" />
            </Array>
          </mxGeometry>
        </mxCell>
        <mxCell id="5zMJlGilUF_v-8dUURK4-191" value="+1" style="text;html=1;align=center;verticalAlign=middle;whiteSpace=wrap;rounded=0;" vertex="1" parent="1">
          <mxGeometry x="805" y="870" width="10" height="20" as="geometry" />
        </mxCell>
        <mxCell id="5zMJlGilUF_v-8dUURK4-192" value="" style="endArrow=classic;html=1;rounded=0;entryX=0.149;entryY=0.312;entryDx=0;entryDy=0;entryPerimeter=0;" edge="1" parent="1" target="5zMJlGilUF_v-8dUURK4-185">
          <mxGeometry width="50" height="50" relative="1" as="geometry">
            <mxPoint x="841" y="840" as="sourcePoint" />
            <mxPoint x="880" y="760" as="targetPoint" />
          </mxGeometry>
        </mxCell>
        <mxCell id="5zMJlGilUF_v-8dUURK4-193" value="" style="endArrow=classic;html=1;rounded=0;exitX=1.017;exitY=0.556;exitDx=0;exitDy=0;exitPerimeter=0;entryX=0;entryY=1;entryDx=0;entryDy=0;" edge="1" parent="1" source="5zMJlGilUF_v-8dUURK4-173" target="5zMJlGilUF_v-8dUURK4-187">
          <mxGeometry width="50" height="50" relative="1" as="geometry">
            <mxPoint x="1055" y="970" as="sourcePoint" />
            <mxPoint x="680" y="970" as="targetPoint" />
            <Array as="points">
              <mxPoint x="1040" y="880" />
              <mxPoint x="1040" y="970" />
              <mxPoint x="790" y="970" />
              <mxPoint x="790" y="920" />
            </Array>
          </mxGeometry>
        </mxCell>
        <mxCell id="5zMJlGilUF_v-8dUURK4-194" value="== count_num_inp" style="ellipse;shape=cloud;whiteSpace=wrap;html=1;" vertex="1" parent="1">
          <mxGeometry x="595" y="850" width="135" height="80" as="geometry" />
        </mxCell>
        <mxCell id="5zMJlGilUF_v-8dUURK4-196" value="last_done" style="text;html=1;align=center;verticalAlign=middle;whiteSpace=wrap;rounded=0;" vertex="1" parent="1">
          <mxGeometry x="725" y="850" width="60" height="30" as="geometry" />
        </mxCell>
        <mxCell id="5zMJlGilUF_v-8dUURK4-246" value="== DEPTH - 2" style="ellipse;shape=cloud;whiteSpace=wrap;html=1;" vertex="1" parent="1">
          <mxGeometry x="1040" y="840" width="135" height="80" as="geometry" />
        </mxCell>
        <mxCell id="5zMJlGilUF_v-8dUURK4-249" value="first_done" style="text;html=1;align=center;verticalAlign=middle;whiteSpace=wrap;rounded=0;" vertex="1" parent="1">
          <mxGeometry x="1170" y="850" width="60" height="30" as="geometry" />
        </mxCell>
        <mxCell id="5zMJlGilUF_v-8dUURK4-251" value="" style="endArrow=none;dashed=1;html=1;dashPattern=1 3;strokeWidth=2;rounded=0;exitX=0.002;exitY=0.357;exitDx=0;exitDy=0;exitPerimeter=0;entryX=0.426;entryY=0.005;entryDx=0;entryDy=0;entryPerimeter=0;" edge="1" parent="1" source="5zMJlGilUF_v-8dUURK4-250" target="5zMJlGilUF_v-8dUURK4-250">
          <mxGeometry width="50" height="50" relative="1" as="geometry">
            <mxPoint x="470" y="630" as="sourcePoint" />
            <mxPoint x="520" y="580" as="targetPoint" />
            <Array as="points">
              <mxPoint x="680" y="586" />
            </Array>
          </mxGeometry>
        </mxCell>
      </root>
    </mxGraphModel>
  </diagram>
</mxfile>
